<svg xmlns="http://www.w3.org/2000/svg" xmlns:xlink="http://www.w3.org/1999/xlink" viewBox="0 0 280 250" preserveAspectRatio="xMidYMid" style="display: block; shape-rendering: auto; background: transparent;" width="280" height="250"><style type="text/css">
  .ld-text text {
    text-anchor: middle;
    dominant-baseline: middle;
    font-size: 78px;
    opacity: 0;
    user-select: none;
    pointer-events: none;
  }
</style>
<g style="transform-origin:140px 125px;transform:scale(1)" class="ld-text">
<g transform="translate(140,125)">
  <g transform="scale(0.9750) translate(0,0)"><g class="path" style="opacity: 1; transform-origin: -124.52px -2.98px; transform: matrix3d(0.91, 0, 0, 0, 0, 0.91, 0, 0, 0, 0, 0.91, 0, 0, 0, 0, 1); animation: 1s linear -0.586667s infinite normal forwards running animate-sdombg2qg2; transform-box: view-box;"><path d="M19.28 44.45L19.28 44.45Q14.24 44.45 11.92 41.09L11.92 41.09L5.20 45.89L3.68 45.89L12.64-6.51Q10.24-6.27 8.64-4.27L8.64-4.27L7.44-5.23Q9.84-8.11 13.48-8.11Q17.12-8.11 19.12-6.27Q21.12-4.43 21.12-1.07L21.12-1.07Q21.12-0.43 20.96 1.01L20.96 1.01Q19.68 8.13 17.84 18.13L17.84 18.13Q21.20 12.69 26.56 12.69Q31.92 12.69 34.80 15.77Q37.68 18.85 37.68 24.21L37.68 24.21Q37.68 33.65 32.56 39.05Q27.44 44.45 19.28 44.45 zM18.72 42.29L18.72 42.29Q23.12 42.29 25.88 36.17Q28.64 30.05 28.64 20.93L28.64 20.93Q28.64 17.25 27.88 15.89Q27.12 14.53 25.12 14.53Q23.12 14.53 21 16.93Q18.88 19.33 17.92 21.45Q16.96 23.57 16.96 23.89L16.96 23.89L16.80 23.89Q14.80 34.37 13.84 39.73L13.84 39.73Q15.20 42.29 18.72 42.29" style="fill: rgb(255, 217, 0);" transform="translate(-145.200,-21.867)"></path></g><g class="path" style="opacity: 1; transform-origin: -92.04px -3.7px; transform: matrix3d(0.91, 0, 0, 0, 0, 0.91, 0, 0, 0, 0, 0.91, 0, 0, 0, 0, 1); animation: 1s linear -0.513333s infinite normal forwards running animate-sdombg2qg2; transform-box: view-box;"><path d="M56.24 40.85Q55.20 42.21 53.40 43.33Q51.60 44.45 48.72 44.45Q45.84 44.45 43.84 42.61Q41.84 40.77 41.84 37.41L41.84 37.41Q41.84 36.77 42 35.33L42 35.33L47.20 6.53Q48.64-1.39 51.16-4.75Q53.68-8.11 57.84-8.11L57.84-8.11Q60.72-8.11 62.60-5.95Q64.48-3.79 64.48 0.61Q64.48 5.01 61.08 13.17Q57.68 21.33 57.68 25.09L57.68 25.09L56.24 25.09Q56.24 20.85 59.60 12.97Q62.96 5.09 62.96 0.37L62.96 0.37Q62.96-2.51 61.64-4.59Q60.32-6.67 58.40-6.67L58.40-6.67Q58.32-4.59 55.64 12.01Q52.96 28.61 50.32 42.85L50.32 42.85Q52.56 42.85 54.48 40.53Q56.40 38.21 57.20 35.89L57.20 35.89L58.08 33.49L59.52 34.13Q59.28 35.25 58.28 37.37Q57.28 39.49 56.24 40.85" style="fill: rgb(255, 217, 0);" transform="translate(-145.200,-21.867)"></path></g><g class="path" style="opacity: 1; transform-origin: -64.08px 6.66px; transform: matrix3d(0.91, 0, 0, 0, 0, 0.91, 0, 0, 0, 0, 0.91, 0, 0, 0, 0, 1); animation: 1s linear -0.44s infinite normal forwards running animate-sdombg2qg2; transform-box: view-box;"><path d="M92.08 44.45L92.08 44.45Q85.04 44.45 84.40 38.29L84.40 38.29Q80.88 44.45 75.52 44.45Q70.16 44.45 67 41.21Q63.84 37.97 63.84 32.13L63.84 32.13Q63.84 23.01 68.32 17.81Q72.80 12.61 79.92 12.61L79.92 12.61Q85.76 12.61 87.68 18.13L87.68 18.13Q88.08 15.73 88.56 13.33L88.56 13.33Q94.48 13.33 97.36 12.85L97.36 12.85L98.40 12.61L92.88 42.85Q95.28 42.61 96.88 40.61L96.88 40.61L98.08 41.57Q95.68 44.45 92.08 44.45 zM72.88 36.21Q72.88 39.81 73.80 41.21Q74.72 42.61 76.64 42.61Q78.56 42.61 80.56 40.53L80.56 40.53Q83.20 37.81 84.80 33.65L84.80 33.65Q85.04 32.61 85.72 28.65Q86.40 24.69 86.88 22.13L86.88 22.13Q86.64 19.09 85.20 16.85Q83.76 14.61 81.60 14.61L81.60 14.61Q77.68 14.61 75.28 21.61Q72.88 28.61 72.88 36.21L72.88 36.21" style="fill: rgb(255, 217, 0);" transform="translate(-145.200,-21.867)"></path></g><g class="path" style="opacity: 1; transform-origin: -26.68px -2.98px; transform: matrix3d(0.91, 0, 0, 0, 0, 0.91, 0, 0, 0, 0, 0.91, 0, 0, 0, 0, 1); animation: 1s linear -0.366667s infinite normal forwards running animate-sdombg2qg2; transform-box: view-box;"><path d="M117.12 44.45L117.12 44.45Q112.08 44.45 109.76 41.09L109.76 41.09L103.04 45.89L101.52 45.89L110.48-6.51Q108.08-6.27 106.48-4.27L106.48-4.27L105.28-5.23Q107.68-8.11 111.32-8.11Q114.96-8.11 116.96-6.27Q118.96-4.43 118.96-1.07L118.96-1.07Q118.96-0.43 118.80 1.01L118.80 1.01Q117.52 8.13 115.68 18.13L115.68 18.13Q119.04 12.69 124.40 12.69Q129.76 12.69 132.64 15.77Q135.52 18.85 135.52 24.21L135.52 24.21Q135.52 33.65 130.40 39.05Q125.28 44.45 117.12 44.45 zM116.56 42.29L116.56 42.29Q120.96 42.29 123.72 36.17Q126.48 30.05 126.48 20.93L126.48 20.93Q126.48 17.25 125.72 15.89Q124.96 14.53 122.96 14.53Q120.96 14.53 118.84 16.93Q116.72 19.33 115.76 21.45Q114.80 23.57 114.80 23.89L114.80 23.89L114.64 23.89Q112.64 34.37 111.68 39.73L111.68 39.73Q113.04 42.29 116.56 42.29" style="fill: rgb(255, 217, 0);" transform="translate(-145.200,-21.867)"></path></g><g class="path" style="opacity: 1; transform-origin: 5.8px -3.7px; transform: matrix3d(0.91, 0, 0, 0, 0, 0.91, 0, 0, 0, 0, 0.91, 0, 0, 0, 0, 1); animation: 1s linear -0.293333s infinite normal forwards running animate-sdombg2qg2; transform-box: view-box;"><path d="M154.08 40.85Q153.04 42.21 151.24 43.33Q149.44 44.45 146.56 44.45Q143.68 44.45 141.68 42.61Q139.68 40.77 139.68 37.41L139.68 37.41Q139.68 36.77 139.84 35.33L139.84 35.33L145.04 6.53Q146.48-1.39 149-4.75Q151.52-8.11 155.68-8.11L155.68-8.11Q158.56-8.11 160.44-5.95Q162.32-3.79 162.32 0.61Q162.32 5.01 158.92 13.17Q155.52 21.33 155.52 25.09L155.52 25.09L154.08 25.09Q154.08 20.85 157.44 12.97Q160.80 5.09 160.80 0.37L160.80 0.37Q160.80-2.51 159.48-4.59Q158.16-6.67 156.24-6.67L156.24-6.67Q156.16-4.59 153.48 12.01Q150.80 28.61 148.16 42.85L148.16 42.85Q150.40 42.85 152.32 40.53Q154.24 38.21 155.04 35.89L155.04 35.89L155.92 33.49L157.36 34.13Q157.12 35.25 156.12 37.37Q155.12 39.49 154.08 40.85" style="fill: rgb(255, 217, 0);" transform="translate(-145.200,-21.867)"></path></g><g class="path" style="opacity: 1; transform-origin: 33.76px 6.66px; transform: matrix3d(0.91, 0, 0, 0, 0, 0.91, 0, 0, 0, 0, 0.91, 0, 0, 0, 0, 1); animation: 1s linear -0.22s infinite normal forwards running animate-sdombg2qg2; transform-box: view-box;"><path d="M189.92 44.45L189.92 44.45Q182.88 44.45 182.24 38.29L182.24 38.29Q178.72 44.45 173.36 44.45Q168 44.45 164.84 41.21Q161.68 37.97 161.68 32.13L161.68 32.13Q161.68 23.01 166.16 17.81Q170.64 12.61 177.76 12.61L177.76 12.61Q183.60 12.61 185.52 18.13L185.52 18.13Q185.92 15.73 186.40 13.33L186.40 13.33Q192.32 13.33 195.20 12.85L195.20 12.85L196.24 12.61L190.72 42.85Q193.12 42.61 194.72 40.61L194.72 40.61L195.92 41.57Q193.52 44.45 189.92 44.45 zM170.72 36.21Q170.72 39.81 171.64 41.21Q172.56 42.61 174.48 42.61Q176.40 42.61 178.40 40.53L178.40 40.53Q181.04 37.81 182.64 33.65L182.64 33.65Q182.88 32.61 183.56 28.65Q184.24 24.69 184.72 22.13L184.72 22.13Q184.48 19.09 183.04 16.85Q181.60 14.61 179.44 14.61L179.44 14.61Q175.52 14.61 173.12 21.61Q170.72 28.61 170.72 36.21L170.72 36.21" style="fill: rgb(255, 217, 0);" transform="translate(-145.200,-21.867)"></path></g><g class="path" style="opacity: 1; transform-origin: 71.16px -2.98px; transform: matrix3d(0.91, 0, 0, 0, 0, 0.91, 0, 0, 0, 0, 0.91, 0, 0, 0, 0, 1); animation: 1s linear -0.146667s infinite normal forwards running animate-sdombg2qg2; transform-box: view-box;"><path d="M214.96 44.45L214.96 44.45Q209.92 44.45 207.60 41.09L207.60 41.09L200.88 45.89L199.36 45.89L208.32-6.51Q205.92-6.27 204.32-4.27L204.32-4.27L203.12-5.23Q205.52-8.11 209.16-8.11Q212.80-8.11 214.80-6.27Q216.80-4.43 216.80-1.07L216.80-1.07Q216.80-0.43 216.64 1.01L216.64 1.01Q215.36 8.13 213.52 18.13L213.52 18.13Q216.88 12.69 222.24 12.69Q227.60 12.69 230.48 15.77Q233.36 18.85 233.36 24.21L233.36 24.21Q233.36 33.65 228.24 39.05Q223.12 44.45 214.96 44.45 zM214.40 42.29L214.40 42.29Q218.80 42.29 221.56 36.17Q224.32 30.05 224.32 20.93L224.32 20.93Q224.32 17.25 223.56 15.89Q222.80 14.53 220.80 14.53Q218.80 14.53 216.68 16.93Q214.56 19.33 213.60 21.45Q212.64 23.57 212.64 23.89L212.64 23.89L212.48 23.89Q210.48 34.37 209.52 39.73L209.52 39.73Q210.88 42.29 214.40 42.29" style="fill: rgb(255, 217, 0);" transform="translate(-145.200,-21.867)"></path></g><g class="path" style="opacity: 1; transform-origin: 103.64px -3.7px; transform: matrix3d(0.91, 0, 0, 0, 0, 0.91, 0, 0, 0, 0, 0.91, 0, 0, 0, 0, 1); animation: 1s linear -0.0733333s infinite normal forwards running animate-sdombg2qg2; transform-box: view-box;"><path d="M251.92 40.85Q250.88 42.21 249.08 43.33Q247.28 44.45 244.40 44.45Q241.52 44.45 239.52 42.61Q237.52 40.77 237.52 37.41L237.52 37.41Q237.52 36.77 237.68 35.33L237.68 35.33L242.88 6.53Q244.32-1.39 246.84-4.75Q249.36-8.11 253.52-8.11L253.52-8.11Q256.40-8.11 258.28-5.95Q260.16-3.79 260.16 0.61Q260.16 5.01 256.76 13.17Q253.36 21.33 253.36 25.09L253.36 25.09L251.92 25.09Q251.92 20.85 255.28 12.97Q258.64 5.09 258.64 0.37L258.64 0.37Q258.64-2.51 257.32-4.59Q256-6.67 254.08-6.67L254.08-6.67Q254-4.59 251.32 12.01Q248.64 28.61 246 42.85L246 42.85Q248.24 42.85 250.16 40.53Q252.08 38.21 252.88 35.89L252.88 35.89L253.76 33.49L255.20 34.13Q254.96 35.25 253.96 37.37Q252.96 39.49 251.92 40.85" style="fill: rgb(255, 217, 0);" transform="translate(-145.200,-21.867)"></path></g><g class="path" style="opacity: 1; transform-origin: 131.6px 6.66px; transform: matrix3d(0.91, 0, 0, 0, 0, 0.91, 0, 0, 0, 0, 0.91, 0, 0, 0, 0, 1); animation: 1s linear 0s infinite normal forwards running animate-sdombg2qg2; transform-box: view-box;"><path d="M287.76 44.45L287.76 44.45Q280.72 44.45 280.08 38.29L280.08 38.29Q276.56 44.45 271.20 44.45Q265.84 44.45 262.68 41.21Q259.52 37.97 259.52 32.13L259.52 32.13Q259.52 23.01 264 17.81Q268.48 12.61 275.60 12.61L275.60 12.61Q281.44 12.61 283.36 18.13L283.36 18.13Q283.76 15.73 284.24 13.33L284.24 13.33Q290.16 13.33 293.04 12.85L293.04 12.85L294.08 12.61L288.56 42.85Q290.96 42.61 292.56 40.61L292.56 40.61L293.76 41.57Q291.36 44.45 287.76 44.45 zM268.56 36.21Q268.56 39.81 269.48 41.21Q270.40 42.61 272.32 42.61Q274.24 42.61 276.24 40.53L276.24 40.53Q278.88 37.81 280.48 33.65L280.48 33.65Q280.72 32.61 281.40 28.65Q282.08 24.69 282.56 22.13L282.56 22.13Q282.32 19.09 280.88 16.85Q279.44 14.61 277.28 14.61L277.28 14.61Q273.36 14.61 270.96 21.61Q268.56 28.61 268.56 36.21L268.56 36.21" style="fill: rgb(255, 217, 0);" transform="translate(-145.200,-21.867)"></path></g></g><text dy="0.35em" fill="#ffd900" font-family="Sail" font-size="78">blablabla</text>
</g>
</g><style type="text/css">@keyframes animate-sdombg2qg2 { 0.00% {transform: translate(0.00px,0.00px) rotate(0.00deg) scale(0.91, 0.91) skew(0deg, 0.00deg) ;opacity: 1.00;}4.00% {transform: translate(0.00px,0.00px) rotate(0.00deg) scale(0.91, 0.91) ;}8.00% {animation-timing-function: cubic-bezier(0.69,0.60,0.35,0.27);transform: translate(0.00px,0.00px) rotate(0.00deg) scale(0.91, 0.91) ;}14.00% {transform: translate(0.00px,0.00px) rotate(0.00deg) scale(0.93, 0.93) ;}18.00% {transform: translate(0.00px,0.00px) rotate(0.00deg) scale(0.94, 0.94) ;}22.00% {animation-timing-function: cubic-bezier(0.67,0.66,0.34,0.33);transform: translate(0.00px,0.00px) rotate(0.00deg) scale(0.96, 0.96) ;}26.00% {transform: translate(0.00px,0.00px) rotate(0.00deg) scale(0.97, 0.97) ;}30.00% {transform: translate(0.00px,0.00px) rotate(0.00deg) scale(0.99, 0.99) ;}34.00% {animation-timing-function: cubic-bezier(0.65,0.71,0.32,0.38);transform: translate(0.00px,0.00px) rotate(0.00deg) scale(1.01, 1.01) ;}40.00% {animation-timing-function: cubic-bezier(0.64,0.74,0.31,0.41);transform: translate(0.00px,0.00px) rotate(0.00deg) scale(1.02, 1.02) ;}46.00% {animation-timing-function: cubic-bezier(0.60,0.91,0.23,0.63);transform: translate(0.00px,0.00px) rotate(0.00deg) scale(1.03, 1.03) ;}50.00% {transform: translate(0.00px,0.00px) rotate(0.00deg) scale(1.03, 1.03) ;}54.00% {transform: translate(0.00px,0.00px) rotate(0.00deg) scale(1.03, 1.03) ;}58.00% {animation-timing-function: cubic-bezier(0.69,0.60,0.35,0.27);transform: translate(0.00px,0.00px) rotate(0.00deg) scale(1.03, 1.03) ;}64.00% {transform: translate(0.00px,0.00px) rotate(0.00deg) scale(1.01, 1.01) ;}68.00% {transform: translate(0.00px,0.00px) rotate(0.00deg) scale(1.00, 1.00) ;}72.00% {animation-timing-function: cubic-bezier(0.67,0.66,0.34,0.33);transform: translate(0.00px,0.00px) rotate(0.00deg) scale(0.98, 0.98) ;}76.00% {animation-timing-function: cubic-bezier(0.66,0.68,0.33,0.35);transform: translate(0.00px,0.00px) rotate(0.00deg) scale(0.97, 0.97) ;}82.00% {animation-timing-function: cubic-bezier(0.65,0.71,0.32,0.38);transform: translate(0.00px,0.00px) rotate(0.00deg) scale(0.94, 0.94) ;}88.00% {animation-timing-function: cubic-bezier(0.65,0.73,0.31,0.40);transform: translate(0.00px,0.00px) rotate(0.00deg) scale(0.92, 0.92) ;}94.00% {animation-timing-function: cubic-bezier(0.63,0.80,0.28,0.48);transform: translate(0.00px,0.00px) rotate(0.00deg) scale(0.91, 0.91) ;}100.00% {animation-timing-function: cubic-bezier(0.63,0.80,0.28,0.48);transform: translate(0.00px,0.00px) rotate(0.00deg) scale(0.91, 0.91) ;} }</style><!-- [ldio] generated by https://loading.io --></svg>